# xmcd
#
# Track frame offsets: 
#        150
#        13340
#        37066
#        54336
#        69216
#        86343
#        109655
#        132137
#        155217
#        173246
#        184023
#        200840
#        222476
#        236904
#        261465
#        275486
#
# Disc length: 3974 seconds
#
# Revision: 2
# Processed by: cddbd v1.5.2PL0 Copyright (c) Steve Scherf et al.
# Submitted via: ExactAudioCopy v1.1
#
DISCID=f30f8410
DTITLE=Köbes Underground - Köbes Underground - live
DYEAR=2007
DGENRE=Unknown
TTITLE0=Endlich Fastelovend
TTITLE1=Köln - Kalk
TTITLE2=Verloren
TTITLE3=Bütz Bütz
TTITLE4=Call me Al
TTITLE5=Brauchtum
TTITLE6=Mariesche
TTITLE7=Der Geschlechtsverkehr
TTITLE8=Araba
TTITLE9=Tausendmal berührt
TTITLE10=Über sieben Brücken
TTITLE11=Locomotive Breath
TTITLE12=Jecke Jecke
TTITLE13=Heimweh nach Köln
TTITLE14=September
TTITLE15=Am Arsch vorbei
EXTD=
EXTT0=
EXTT1=
EXTT2=
EXTT3=
EXTT4=
EXTT5=
EXTT6=
EXTT7=
EXTT8=
EXTT9=
EXTT10=
EXTT11=
EXTT12=
EXTT13=
EXTT14=
EXTT15=
PLAYORDER=
